<?xml version="1.0" encoding="utf-8"?>
<!-- Generator: Adobe Illustrator 22.1.0, SVG Export Plug-In . SVG Version: 6.00 Build 0)  -->
<svg version="1.1" id="图层_1" xmlns="http://www.w3.org/2000/svg" xmlns:xlink="http://www.w3.org/1999/xlink" x="0px" y="0px"
	 viewBox="0 0 352 298" style="enable-background:new 0 0 352 298;" xml:space="preserve">
<style type="text/css">
	.st0{fill:#FF3434;}
	.st1{fill:#FFFFFF;}
	.st2{fill:#E7EAEE;}
	.st3{fill:#FFB61D;}
	.st4{fill:#00160A;}
</style>
<path class="st0" d="M92.6,256.1c0,0-79.1-16-84.5-37.1c-5.4-21.1,58.2-31.3,58.2-31.3s30.5-5.6,35.1-10.1s97.6-2.8,142.4-38.7
	c44.9-35.9,59.7-54.1,81.9-33.7c22.2,20.4,16.8,80.8-7.6,115.8c-24.5,35-121.8,40.8-121.8,40.8L92.6,256.1z"/>
<path class="st1" d="M236.1,234.2c0,0-2.1,1.6-3.1-1.4c-1-2.9-1.6-5-1.6-5s-2.1-2.3-3.3-2.3c-1.1,0-4.8-2.7-4.4-4.9
	c0.4-2.1,4.7-1.9,5.9-1.9c1.2,0,0.3-3.3,0.3-4.2c0-1,1.4-9.4,4.9-8.1c3.4,1.3,5.3,3.5,3.9,7.3c3.6-0.2,6.8-2,7.2,5.6
	c-0.3,2.8-0.2,3.4,1.4,5.5c1.6,2.1,2.2,5.1,0.9,6.2c-1.3,1.1-3.4,1.5-4.1,1.9c-0.7,0.5-1.1,1.5-1.1,3.3s-2.5-1.3-2.5-1.3l-2.3-2.7
	L236.1,234.2z"/>
<path class="st1" d="M206.9,138.1c2.4,27.4,4.4,54.9,5.9,82.3c0.2,3.2,0.3,6.8-1.4,9.4c-1.2,1.8-3,2.9-4.8,3.9
	c-6.7,3.5-14,5.2-21.4,6.4c-20,3.2-40.5,3-60.4-0.6c-3.9-0.7-8-1.6-11.4-3.7c-3.5-2.1-6.4-5.7-6.9-10c-4.3-35.6-6.8-71.4-7.3-107.2
	c0-2.6-0.1-5.4-1.6-7.5c-1.6-2.3-4.4-3.1-6.1-5.2c-3.1-3.6-1.9-9.7,1.3-13.1C96,89.4,100.6,88,105,87c12.9-2.9,26.2-3.9,39.3-2.9
	c0.4,1.1-1.2,1.8-2.3,1.8c-12.4,0-24.7,1.1-36.9,3.3c-4.5,0.8-9.3,2-12,5.9c12.3,4.4,25.5,4.6,38.5,4.7c23.2,0.2,46.5,0,69.3-4.7
	c2-0.4,4.2-1,5.5-2.8c1.3-1.8,0.7-5-1.4-5.3c-17.5-2.2-35.3-2.7-52.9-1.6c-1.4,0.1-3.4-0.8-2.7-2.1c16.2-0.8,32.4-0.4,48.5,1.1
	c4.3,0.4,8.9,1,12.3,3.9c3.7,3,5.5,8.4,4.5,13.2c-1,4.8-4.8,8.9-9.3,9.9"/>
<path class="st2" d="M145.8,82.8c0.6-17.3,3-34.7,0.3-51.7c-0.3-1.9-0.7-3.7-1.4-5.5c-1.2-2.9-3.3-5.4-6-6.9
	c-0.8-0.5-1.7-0.9-2.2-1.7c-0.5-0.8-0.2-2.2,0.7-2.4c3.7,0.6,6.7,3.7,8.4,7.4c1.7,3.6,2.2,7.7,2.6,11.7c1.3,14.1,1.2,28.3-0.3,42.4
	c-0.5,4.8-1.2,9.8,0.3,14.3c-0.4-0.1-0.9-0.2-1.3-0.3C145.7,87.8,145.8,85.3,145.8,82.8L145.8,82.8z"/>
<path class="st1" d="M103.9,256c-0.9,1.1-2.4,1.7-3.8,1.5c-0.7-0.1-1.1,1-0.7,1.6c0.4,0.6,1.2,0.8,1.9,0.8c0.7,0,1.4,0,2.1,0.3
	c-2.4,1.2-4.8,2.3-7.2,3.5c-6.9,5.5,3.5,3.3,5.2,2.9c-1.9,2-3.2,4.3-1.8,4.3c-1.3,0.6,2-0.9,1,0.3c-0.9,1.2-1.2,3.1-0.3,4.2
	c1.6,0,3-1.6,2.9-3.3c3,0.6,6.1,0.8,9.2,0.6c1.8-0.1,3.1-2.3,2.7-4.1c-0.4-1.8-2.5-3-4.2-2.5c2.2-1.1,4.3-2.4,6.2-4
	c-0.5-0.8-1-1.7-1.6-2.5c-0.8-1.3-1.6-2.6-2.8-3.5s-2.7-1.5-4.1-0.9c-1.4,0.5-2.3,2.3-1.7,3.7c-0.4,0.6-1.4,0.6-1.8,0
	c-0.4-0.6-0.2-1.5,0.4-1.9c0.5-0.3,0.6-1.1,0.3-1.7s-0.9-0.9-1.4-1.2c-1.5-0.8-3.3-1.5-4.6-0.5c0.5,0.3,1.1,0.5,1.7,0.5
	c-0.8,0.5-1.6,1-2.5,1.6c-0.3,0.3,0.3,0.6,0.7,0.6C101.4,256.2,102.7,256.1,103.9,256z"/>
<path class="st3" d="M100.2,256.3c1.3-0.1,2.5-0.2,3.8-0.3c-0.9,1.1-2.4,1.7-3.8,1.5c-0.7-0.1-1.1,1-0.7,1.6
	c0.4,0.6,1.2,0.8,1.9,0.8c0.7,0,1.4,0,2.1,0.3c-2.4,1.2-4.8,2.3-7.2,3.5c1.8,0.2,3.5,0.1,5.3-0.3c-1.9,2.1-5.9,0.9-7.3,3.4
	c2.8,0.4,5.6,0,8.2-1c0,1-1.1,1.5-2,1.7c-0.9,0.1-2,0.2-2.6,0.9c-0.4,0.5-1.1,0.3-1.7,0.1c-1-0.3-1.9-0.7-2.7-1.4
	c-0.7-0.7-1.1-2-0.6-2.9c1.1-2,5-0.8,5.6-3.1c0.2-0.6,0-1.2-0.1-1.7c-0.3-1.3-0.6-2.7-0.4-4c0.2-1.4,0.9-2.7,2.1-3.2
	c2-0.8,4.1,1,6.2,1.5c1.6,0.4,3.3,0,4.9,0.4c2.3,0.6,4,2.6,5.5,4.5c0.7,0.9,1.4,1.8,1.6,2.9c0.2,1.1-0.3,2.4-1.3,2.7
	c-0.9,0.2-1.3,1.5-1.1,2.5c0.2,1,0.7,1.9,1,2.9c0.3,1,0.1,2.2-0.8,2.7c-1.8,1-3.7,2-5.7,2c-1.4,0-2.7-0.5-4.1-0.5
	c-1.4,0-2.9,0.5-3.5,1.8c-0.6,1.3-2.6,1-3.4-0.2c-0.8-1.2-0.6-2.8-0.4-4.2c0.1-0.4,0.1-0.9,0.4-1.2c0.2-0.3,0.5-0.4,0.9-0.5
	c1.4-0.5,2.9-0.7,4.4-0.6c-1.3,0.6-2.7,1.3-3.6,2.5c-0.9,1.2-1.2,3.1-0.3,4.2c1.6,0,3-1.6,2.9-3.3c3,0.6,6.1,0.8,9.2,0.6
	c1.8-0.1,3.1-2.3,2.7-4.1c-0.4-1.8-2.5-3-4.2-2.5c2.2-1.1,4.3-2.4,6.2-4c-0.5-0.8-1-1.7-1.6-2.5c-0.8-1.3-1.6-2.6-2.8-3.5
	s-2.7-1.5-4.1-0.9c-1.4,0.5-2.3,2.3-1.7,3.7c-0.4,0.6-1.4,0.6-1.8,0c-0.4-0.6-0.2-1.5,0.4-1.9c0.5-0.3,0.6-1.1,0.3-1.7
	s-0.9-0.9-1.4-1.2c-1.5-0.8-3.3-1.5-4.6-0.5c0.5,0.3,1.1,0.5,1.7,0.5c-0.8,0.5-1.6,1-2.5,1.6C99.2,256,99.8,256.3,100.2,256.3
	L100.2,256.3z"/>
<path class="st2" d="M141.8,79.6c-0.1-0.5,0.1-1.2,0.5-1.4c0.1,0.3,0.3,0.7,0.4,1c-0.3,0.2-0.6,0.4-0.9,0.6L141.8,79.6z"/>
<path class="st1" d="M105.3,263c0.2,1,0.1,2.1-0.3,3.1c1.1,0.1,2.3,0.1,3.4-0.1c-0.8,1.3-2.8,1.6-3.8,0.6
	C103.5,265.6,103.9,263.5,105.3,263L105.3,263z"/>
<path class="st2" d="M143.1,54.9c-0.4,5.9-0.6,11.8-0.5,17.7c0,1.2,0.1,2.4,0.6,3.4c0.2,0.3-0.3,0.6-0.6,0.6
	c-0.3-0.1-0.5-0.4-0.7-0.7c-2-4.2-0.7-9.1-0.8-13.7c-0.1-3-0.7-6.1,0.2-9c0.2-0.6,1.1-0.5,1.5,0C143.2,53.6,143.2,54.3,143.1,54.9
	L143.1,54.9z"/>
<path d="M78.1,202.5c0.4,0.7,0.4,1.6,0,2.3c-0.4-1.7-2.4-2.5-3.7-1.5c-0.5,0.4-0.9,1-1.5,0.8c0.2-0.1,0.3-0.6,0.1-0.7
	C74.1,201.4,76.7,201,78.1,202.5L78.1,202.5z"/>
<path class="st1" d="M82.2,200.8c0-0.2,0.1-0.5,0.1-0.7c0.2-1.4,0.1-3.1-1.1-3.6c-0.8-0.4-1.7-0.1-2.5,0.3c-0.3,0.1-0.6,0.3-1,0.3
	c-1.8,0.5-3.8-0.4-4.8-2.1c-0.7-1.3-2.7-0.6-3.4,0.7c-0.4,0.8-0.5,1.8-0.6,2.8c-0.1,0.6-0.1,1.1-0.3,1.7c-0.3,1.5-1.6,3-2.9,2.6
	c-1.1-0.3-2.3,0.1-3,1.1c-0.7,1-0.7,2.4,0,3.4c0.8,1.2,2.2,1.6,3.5,2c0.4,0.1,0.8,0.2,1.1,0.3c0.6,0.2,1.3,0.5,1.7,1.1
	c0.4,0.6,0.3,1.6-0.3,1.9c-1,0.6-0.9,2.3,0,3c0.9,0.7,2.1,0.6,3.1,0c0.9-0.6,1.6-1.6,2.3-2.5c1-1.5,3.2-1.8,4.5-0.7
	c0-1.3,0.7-2.5,1.7-3.1c1-0.6,2.4-0.6,3.4,0.1c0.9-0.4,0.8-1.8,0.3-2.6c-0.2-0.3-0.5-0.6-0.8-0.9c-0.4-0.4-0.8-0.9-1-1.4
	C81.7,203.1,81.9,201.9,82.2,200.8z M78.9,208.1c0.2,0.6,0.1,1.3-0.2,1.9l0.1,0.1c-0.6,0.3-1.3,0.3-1.8-0.1l0.6-1.6
	C77.9,208.2,78.4,208.1,78.9,208.1z"/>
<path class="st1" d="M235.1,136c-0.6-0.7-1.1-1.5-1.8-2.2c-1.9-2.2-4.1-4.2-6.8-4.6c-0.3,0-0.6-0.1-0.9-0.1
	c-0.6-0.1-1.2-0.1-1.7-0.3c-0.7-0.3-1.4-0.8-2-1.3c-0.8-0.7-1.6-1.6-2.4-2.4c-2.3-2.5-4.6-4.9-7.7-5c-3.3-0.1-6.3,3-6.4,6.6
	c0,3,1.8,5.5,3.5,7.9l29.4,40.5l18.3,25.1c2.4,3.2,5.5,6.8,9.2,6.3c3.4-0.5,5.7-4.8,4.7-8.4c-0.4-1.4-1.1-2.6-1.8-3.8
	c-0.6-1-1.3-2.1-1.7-3.2c-0.6-1.9-0.6-3.8-0.6-5.8c0-1.5,0-3.1-0.3-4.5c-0.6-3.3-2.6-6-4.7-8.6c-1.1-1.4-2.3-3.4-1.2-4.8
	c1.3-1.7,0.6-4.2-0.2-6.1c-2.5-6.4-6.2-12.2-10.8-17c-2-2.1-4.8-4.1-7.3-2.8c-1,0.6-2.3-0.1-3.2-0.9
	C237.5,139.1,236.3,137.5,235.1,136z M256.7,162.3c0.2,1.1,0,2.3-0.7,3.1c-0.2,0.2-0.4,0.4-0.7,0.4c-0.4,0-0.7-0.4-1-0.8l-11.4-16.9
	c-0.4-0.6-0.1-1.7,0.5-2.1c0.6-0.4,1.5-0.3,2.1,0.1c0.7,0.4,1.2,1,1.7,1.6c3.1,3.6,5.8,7.5,8.2,11.7
	C256,160.3,256.5,161.3,256.7,162.3z"/>
<path class="st4" d="M211,224.9c0.4-1.4,0.3-3,0.2-4.5l-5.8-87.6c1.2,1.4,1.4,3.4,1.6,5.2c2.4,27.4,4.4,54.9,5.9,82.3
	c0.2,3.2,0.3,6.8-1.4,9.4c-1.2,1.8-3,2.9-4.8,3.9c-6.7,3.5-14,5.2-21.4,6.4c-20,3.2-40.5,3-60.4-0.6c-3.9-0.7-8-1.6-11.4-3.7
	c-3.5-2.1-6.4-5.7-6.9-10c-4.3-35.6-6.8-71.4-7.3-107.2c0-2.6-0.1-5.4-1.6-7.5c-0.8-1.2-2-2-3.3-2.8c-1-0.7-2.1-1.4-2.9-2.4
	c-3.1-3.6-1.9-9.7,1.3-13.1C96,89.4,100.6,88,105,87c12.9-2.9,26.2-3.9,39.3-2.9c0.4,1.1-1.2,1.8-2.3,1.8c-12.4,0-24.7,1.1-36.9,3.3
	c-4.5,0.8-9.3,2-12,5.9c12.3,4.4,25.5,4.6,38.5,4.7c23.2,0.2,46.5,0,69.3-4.7c2-0.4,4.2-1,5.5-2.8c1.3-1.8,0.7-5-1.4-5.3
	c-17.5-2.2-35.3-2.7-52.9-1.6c-1.4,0.1-3.4-0.8-2.7-2.1c16.2-0.8,32.4-0.4,48.5,1.1c4.3,0.4,8.9,1,12.3,3.9c3.7,3,5.5,8.4,4.5,13.2
	c-1,4.8-4.8,8.9-9.3,9.9l-0.2,11.9c-1.2-1.4-1.1-3.4-0.9-5.4l0,0v0l0,0v0l0,0v0v0c0-0.4,0.1-0.8,0.1-1.2c0.1-2.3-1.1-5.3-3.2-4.8
	c-33,7.4-67.3,7.6-100.4,0.5c0,34,3,68,6,101.9c0.4,4,0.7,8.2,2.2,11.9c1.5,3.7,4.3,7.1,7.9,8.1c17.4,4.7,35.4,6.7,53.3,5.7
	c12.2-0.6,24.7-2.8,35.4-9.2C207.9,229.5,210.2,227.7,211,224.9z M91.9,96.5c-1.1,4.1,1.2,8.6,4.4,11.2c3.2,2.5,7.3,3.5,11.2,4.3
	c31.7,6.3,64.4,4.5,96.1-2.2c2.4-0.5,4.9-1.1,6.8-2.9c2-2,2.8-5.1,2.7-8c-0.2-2.9-1.2-5.7-2.3-8.4c-1.6,4.3-6.5,5.7-10.8,6.5
	c-28.3,5.2-57.2,6-85.8,4.4c-3.3-0.2-6.5-0.4-9.7-1C100,99.8,95.8,98.4,91.9,96.5z M109.5,212.1c-0.6-0.6-1.3-1.3-2.1-1
	c-0.3,2.2,2.1,3.5,4,4.2c2.6,0.8,5.3,1.5,7.9,1c1-0.2,1.9-0.6,2.6-1.3c1.6-1.6,1.7-4.3,1.6-6.6c-0.7-21.2-1.8-42.5-3.3-63.6
	c-0.2-3.4-0.7-7.2-3.1-9.3c-1-0.9-2.3-1.3-3.5-1.8l-8.5-3.1c-1.1-0.4-2.6-0.7-3.4,0.3c-0.5,0.7-0.4,1.6-0.3,2.4
	c2.7,23.9,4.2,47.9,4.5,72c0,3.3,2.7,6,5.6,7.1c3.1,1.2,6.5,1,9.9,0.8C118,215.6,112.8,215.3,109.5,212.1L109.5,212.1z M121.4,210.1
	c-2.2,1.7-5.2,1.5-7.9,0.9c-1.6-0.3-3.3-0.8-4.3-2.1c-1.1-1.4-1.1-3.3-1.2-5.1c-0.5-24.1-2.1-48.2-4.8-72.2l8.7,3.2
	c2.1,0.8,4.3,1.7,5.5,3.6c1.1,1.7,1.3,3.9,1.4,5.9l1.7,26.5C121.4,183.9,122.2,197.1,121.4,210.1z M158.5,217.7
	c-2.7-0.8-5.4-1.2-8.1-1.4l-0.1,0c-2-0.1-4.3-0.3-5.5-1.9c-0.6-0.8-0.8-1.8-1-2.8c-4.3-19.6-4.7-40-5.1-60.1l-0.2-9.7
	c0-0.7,0-1.4-0.4-1.9c-0.3-0.6-1.1-0.9-1.6-0.4l0.8,33.3c0.1,2.3,0.1,4.7,0.2,7c0.6,10.7,2.7,21.2,4.7,31.7c0.5,2.7,1.6,5.9,4.1,6.2
	l12.6,1.6c0.1,0,0.2,0,0.3,0C159.8,218.8,159.1,217.9,158.5,217.7z M204.3,201.7c0.1,3.8,0.2,7.9-2,10.9c3.2-2.2,3.4-7,3.3-11.1
	l-1-35.5c-0.3-9.3-0.5-18.7-2.9-27.6c-0.4-1.6-1-3.3-2.1-4.5c-1.1-1.2-3-1.6-4.3-0.6c-2.5,2.1-5.8,2.1-9,2.2l0,0c-0.5,0-1,0-1.5,0
	c-3.6,0.1-7.8,1.3-9.2,4.9c-0.8,2.2-0.3,4.7,0.1,7.1l0,0.2c2.6,12.9,3,26.1,3.3,39.4c0.2,6,0.3,12.1,0.7,18.1
	c0.2,3.6,0.6,7.3,2.4,10.3c0.4,0.6,0.8,1.2,1.4,1.5c0.6,0.3,1.2,0.4,1.8,0.4c3.4,0.3,6.8,0.2,10-1c3.2-1.3,6-3.9,7-7.3
	c0.6-2.1,0.5-4.4,0.4-6.6l0-0.1c-0.6-12-0.8-24-0.5-36c0-0.5,0-0.9,0-1.4c0.2-9,0.5-18.3-3-26.5c-0.5-1.1-1-2.2-2-2.9
	c0,0-0.1-0.1-0.1-0.1c-0.4-0.2-0.8-0.5-0.8-1c0.7-0.6,1.8-0.3,2.5,0.4c0.7,0.7,1,1.6,1.3,2.5c1.1,3.6,1.9,7.4,2.2,11.2
	c0.2,2.1,0.3,4.1,0.3,6.2L204.3,201.7z M177.5,139c1.3-1.6,3.5-1.9,5.5-2l10.6-0.7c1.1-0.1,2.2-0.1,3.1,0.6c0.6,0.5,0.9,1.2,1.3,1.9
	c2.4,5.7,2.7,12.2,2.8,18.5c0.3,17.5-0.1,35.1-1.4,52.5c-0.1,1.9-1.5,3.5-3.1,4.2c-1.6,0.8-3.4,1-5.1,1.1l-4.9,0.4
	c-0.6,0.1-1.2,0.1-1.8-0.2c-0.8-0.4-1.1-1.4-1.4-2.3c-2.6-9.5-2.6-19.4-2.7-29.3v0c0-5.2,0-10.4-0.4-15.5c-0.5-7.4-1.9-14.7-3.2-22
	l0-0.1C176.4,143.6,176,140.8,177.5,139z M225.4,223.1c0.9,1,2.1,1.7,3.3,2c1.1,0.3,1.8,1.7,1.4,2.8c0,0.2-0.2,0.2-0.3,0.1
	c-0.1-0.1-0.1-0.2-0.2-0.4c0,0,0,0,0-0.1c-0.3-1-1.3-1.5-2.2-1.9c-1.3-0.6-2.5-1.2-3.4-2.4s-1.1-2.9-0.2-4c0.6-0.7,1.5-1,2.4-1.3
	c1.1-0.4,2.4-0.7,3.5-0.4l0.3,0.6c0.6,0.4,1.3,0.3,1.8-0.2c0.5-0.5,1.3-0.5,2.1-0.4l3.9,0.4c0.2,0,0.4,0,0.5,0.2
	c0.5,0.4,0.1,1.2-0.5,1.4c-0.4,0.1-0.8,0-1.2,0c-0.2,0-0.3-0.1-0.5-0.1c-0.2,0-0.4,0-0.6,0c-0.5,0.2-0.6,1.1-0.4,1.7
	c0,0.1,0.1,0.2,0.1,0.3c0.2,0.5,0.3,1,0.1,1.5c-0.5,0.2-1.1-0.3-1.2-0.8c-0.1-0.4-0.1-0.9,0-1.3c0-0.1,0-0.2,0-0.3c0,0,0-0.1,0-0.1
	c0-0.6,0-1.3-0.5-1.6c-1.8,0.9-3.8,1.3-5.8,1.1c-0.1,0-0.2,0-0.3,0c-0.1,0-0.1,0-0.2,0h0h0h0c-0.5-0.1-1-0.1-1.5-0.1
	c-0.7,0.1-1.3,0.4-1.7,1c0.3,0.2,0.5,0.5,0.5,0.8l6.4,1.3c-0.5,0.6-1.3,0.6-2,0.5L225.4,223.1z M168.1,205
	c-1.3-16.6-1.7-33.3-1.2-50l0-0.4c0.1-3.7,0.2-7.4-0.7-10.9c-0.9-3.6-3.1-7.1-6.4-8.5c-1.9-0.8-4-0.8-6-0.9
	c-5.3-0.1-10.7-0.1-15.9,1c-1.7,0.4-3.6,1-4.4,2.7c-0.6,1.2-0.5,2.5-0.4,3.8l4.6,71.1c0.1,1.4,0.2,2.8,0.9,3.9
	c0.8,1.2,2.1,1.7,3.3,2.2c5.3,1.9,11.1,2.5,16.6,1.7c-0.5-0.8-1.5-1-2.4-1.1l-10.9-1.4c-1.1-0.1-2.2-0.3-3.2-0.9
	c-2.3-1.4-2.8-4.7-3-7.6c-1.7-22.9-3.5-45.8-4.4-68.8c-0.1-1.2,0-2.7,1-3.4c0.5-0.3,1.1-0.4,1.7-0.4l16-1.1c1.8-0.1,3.7-0.2,5.4,0.4
	c2.4,0.9,4,3.2,5,5.7c1.5,3.8,1.5,8,1.4,12.1c0,3-0.1,5.9-0.2,8.9c-0.2,11.3-0.5,22.6,0.9,33.8c0.1,0.5,0.1,1.1,0.2,1.6v0
	c0.8,6.4,1.7,13.3-1.5,18.7l-0.1,0.1c-0.2,0.4-0.5,0.8-0.5,1.3c0,0.5,0.4,1.1,0.9,0.9c0.2-0.1,0.3-0.2,0.5-0.3
	C168.7,215.8,168.4,210,168.1,205z M143.3,93c2.1,0.1,4.3,0.6,5.7,2.3c0.3,0.3,0.5,0.7,0.8,1.1c0.5,0.8,1,1.5,1.8,1.9
	c-1.2-0.5-2.5-0.6-3.7-0.3c-0.4,0.1-0.9,0.2-1.3,0.4c-0.7,0.2-1.3,0.4-2,0.5l1.4-1.3c0.5-0.5,1-1,1.7-0.9c0.1-1.2-0.7-2.3-1.8-2.6
	c-1-0.3-2.2,0.1-3,0.8c-0.8,0.7-1.5,1.7-2,2.8c-0.2,0.4-0.5,0.9-0.9,0.9c-0.4-0.2-0.3-0.8-0.2-1.2c0-0.1,0.1-0.2,0.2-0.3l0,0
	c0.1-0.3,0.3-0.5,0.3-0.9c0-0.8-0.8-1.2-1.5-1.5c-0.7-0.2-1.5-0.5-2,0c-0.4,0.4-0.5,1-0.6,1.6l-0.2,1.9c-1.2,0.4-2.4,0.5-3.6,0.1
	c1.4-0.9,2.9-2.1,3.2-3.9C138,93.4,140.7,92.9,143.3,93z M82.3,200.1c0.2-1.4,0.1-3.1-1.1-3.6c-0.8-0.4-1.7-0.1-2.5,0.3h0
	c-0.3,0.1-0.6,0.3-1,0.3c-1.8,0.5-3.8-0.4-4.8-2.1c-0.7-1.3-2.7-0.6-3.4,0.7c-0.4,0.8-0.5,1.8-0.6,2.8c-0.1,0.6-0.1,1.1-0.3,1.7
	c-0.3,1.5-1.6,3-2.9,2.6c-1.1-0.3-2.3,0.1-3,1.1c-0.7,1-0.7,2.4,0,3.4c0.8,1.2,2.2,1.6,3.5,2c0.4,0.1,0.8,0.2,1.1,0.3
	c0.6,0.2,1.3,0.5,1.7,1.1c0.4,0.6,0.3,1.6-0.3,1.9c-1,0.6-0.9,2.3,0,3c0.9,0.7,2.1,0.6,3.1,0c0.9-0.6,1.6-1.6,2.3-2.5
	c1-1.5,3.2-1.8,4.5-0.7c0-1.3,0.7-2.5,1.7-3.1c1-0.6,2.4-0.6,3.4,0.1c0.9-0.4,0.8-1.8,0.3-2.6c-0.2-0.3-0.5-0.6-0.8-0.9
	c-0.4-0.4-0.8-0.9-1-1.4c-0.4-1-0.2-2.2,0-3.3C82.2,200.5,82.2,200.3,82.3,200.1z M79.2,197.7c0.7-0.2,1.5-0.1,2,0.5
	c0.6,0.8,0.2,1.8-0.2,2.8c-0.3,0.8-0.7,1.7-0.5,2.5c0.1,0.6,0.6,1.1,1,1.6l2,2.2c-0.8,0.8-2,0.5-3.2,0.1c-1.1-0.3-2.2-0.6-3.1-0.1
	c-0.7,0.4-1.1,1.1-1.4,1.9c0,0.1-0.1,0.2-0.1,0.3c-1.2,2.2-2.8,4.1-4.8,5.4c-0.3,0.2-0.5,0.3-0.8,0.3c-0.7-0.1-0.9-1.2-0.7-1.9
	c0.2-0.9,0.7-1.7,1.1-2.6c0.6-1.2,1.3-2.4,1.2-3.7c-0.8,1.4-2.4,1.9-3.9,1.7c-1.5-0.2-2.8-1-4.1-1.9c-0.9-0.6-0.6-2.2,0.3-2.7
	c0.9-0.6,2-0.4,3-0.3c1,0.2,2.1,0.3,3-0.3c-0.4-2-0.3-4.2,0.3-6.1c0.2-0.7,0.5-1.4,1.1-1.8s1.5-0.2,1.8,0.5c0.6,1.7,2.5,2.8,4.2,2.5
	c0.4-0.1,0.7-0.2,1.1-0.4l0,0C78.6,197.9,78.9,197.8,79.2,197.7z M78.9,208.1c0.2,0.6,0.1,1.3-0.2,1.9l0.1,0.1
	c-0.6,0.3-1.3,0.3-1.8-0.1l0.6-1.6C77.9,208.2,78.4,208.1,78.9,208.1z M233.8,235.4c-1.8-3.2-3-6.7-3.5-10.4
	c1.2,0.3,1.9,1.8,2.1,3.2c0.1,0.4,0.1,0.8,0.1,1.1v0c0.1,1,0.2,2,0.6,2.9c0.6,1.2,2.2,2,3.2,1.1c0.2-0.2,0.4-0.5,0.6-0.8
	c0.3-0.5,0.6-1,1.1-1.1c0.6-0.1,1.2,0.5,1.6,1.1l2.4,3.4c0.6-0.2,0.7-0.9,0.7-1.7c0-0.5,0.1-0.9,0.2-1.3c0.4-0.9,1.3-1,2.3-1.2
	c0.7-0.1,1.4-0.2,1.9-0.6c1-0.7,1.2-2.1,0.9-3.3c-0.4-1.2-1.2-2.1-2.1-2.9c-1.3-1.2-1.1-3.1-0.8-5c0.2-1.8,0.4-3.7-0.7-5
	c-1.5-1.8-4.3-0.8-6.3,0.2l-0.9-1.1c1.7-0.7,2-3.3,0.9-4.7c-1.1-1.5-3-2-4.8-2c-0.3,0-0.5,0-0.7,0.2c-0.6,0.5,0.3,1.5,1,1.8l3.6,1.5
	c-0.8,0.6-1.9,0.2-3-0.1c-1.2-0.4-2.3-0.7-3,0.2c-0.8,1,0,2.6,1.1,3.2c0.4,0.3,0.9,0.4,1.3,0.6l0,0c0.7,0.3,1.4,0.6,2,1.2
	c-0.7,0.4-1.5,0.1-2.3-0.2c-0.2-0.1-0.4-0.1-0.6-0.2c-1-0.3-2.4,0.1-2.4,1.1c-1-1.2-0.7-3-0.4-4.6c0.4-1.7,0.8-3.6,1.8-5
	c1-1.4,2.9-2.3,4.5-1.5c1.3,0.6,1.9,2.1,2.5,3.6c0.1,0.2,0.2,0.4,0.3,0.7c0.7,1.6,2,3.3,3.7,2.9c1.5-0.3,3,0.9,3.6,2.3
	c0.6,1.5,0.6,3.1,0.5,4.7c0,1.6,0.6,3.1,1.3,4.5l0,0c0.2,0.5,0.5,1,0.6,1.5c0.8,2,1,4.6-0.6,5.9c-0.5,0.4-1.2,0.6-1.9,0.8h0
	c-0.3,0.1-0.6,0.2-0.9,0.3c-0.9,0.4-1.9,1.2-1.8,2.3c0,0.1,0,0.3,0.1,0.4c0,0.2,0.1,0.5,0.1,0.7c-0.1,0.7-0.9,1-1.5,0.8
	c-0.6-0.2-1.1-0.7-1.5-1.2l-2.7-3.1C237.3,234.4,235.5,235.5,233.8,235.4z M233.4,133.8c-1.9-2.2-4.1-4.2-6.8-4.6
	c-0.3,0-0.6-0.1-0.9-0.1c-0.6-0.1-1.2-0.1-1.7-0.3c-0.7-0.3-1.4-0.8-2-1.3c-0.8-0.7-1.6-1.6-2.4-2.4c-2.3-2.5-4.6-4.9-7.7-5
	c-3.3-0.1-6.3,3-6.4,6.6c0,3,1.8,5.5,3.5,7.9l29.4,40.5l18.3,25.1c2.4,3.2,5.5,6.8,9.2,6.3c3.4-0.5,5.7-4.8,4.7-8.4
	c-0.4-1.4-1.1-2.6-1.8-3.8c-0.6-1-1.3-2.1-1.7-3.2c-0.6-1.9-0.6-3.8-0.6-5.8c0-1.5,0-3.1-0.3-4.5c-0.6-3.3-2.6-6-4.7-8.6
	c-1.1-1.4-2.3-3.4-1.2-4.8c1.3-1.7,0.6-4.2-0.2-6.1c-2.5-6.4-6.2-12.2-10.8-17c-2-2.1-4.8-4.1-7.3-2.8c-1,0.6-2.3-0.1-3.2-0.9
	c-1.4-1.3-2.6-2.8-3.8-4.3C234.6,135.3,234,134.5,233.4,133.8z M208.5,123.2c1.2-1.3,3-1.8,4.7-1.4c1.9,0.5,3.3,2,4.6,3.6
	c3.4,4.2,6.2,8.8,9,13.3c0.3,0.5,0.6,1,0.9,1.5c11.9,19.3,24.9,37.7,39,55.2c1.4,1.7,2.9,3.8,2.3,6c-0.6,2.5-3.6,3.4-5.9,2.6
	c-2.2-0.9-3.8-3-5.3-5l-48.6-66.5c-1-1.3-2-2.7-2.3-4.4C206.8,126.4,207.3,124.4,208.5,123.2z M247.9,162c-1-1.4-2-2.7-3.4-3.7
	c-0.6-0.5-1.4-0.9-2.1-1.3c-1.8-1-3.7-2-4.1-4.1c-0.1-0.7-0.1-1.3-0.1-2c0-0.5,0.1-1.1,0-1.6c-0.1-0.9-0.4-1.7-0.8-2.5
	c-2.6-5.9-7.1-10.9-12.6-13.8c-0.9-0.5-0.3-2.2,0.6-2.4c1-0.2,1.9,0.5,2.7,1.2c7.8,6.7,13.5,15.6,19.2,24.5c3.5,5.4,7,10.9,11,15.9
	c0.4,0.5,0.8,1,1.2,1.4c2.2,2.7,4.4,5.3,5.7,8.6c-1.7,0.3-3.2,1.8-3.7,3.6c-2.8-2.9-4.6-6.8-6.3-10.6c-0.4-1-0.9-2-1.3-2.9
	C252.3,168.7,250.2,165.2,247.9,162z M256,165.4c-0.2,0.2-0.4,0.4-0.7,0.4c-0.4,0-0.7-0.4-1-0.8l-11.4-16.9
	c-0.4-0.6-0.1-1.7,0.5-2.1c0.6-0.4,1.5-0.3,2.1,0.1c0.7,0.4,1.2,1,1.7,1.6c3.1,3.6,5.8,7.5,8.2,11.7c0.5,0.9,1.1,1.9,1.3,3
	C256.9,163.4,256.7,164.6,256,165.4z M257.7,163.8c0.2-0.9-0.1-1.8-0.5-2.6c-2.6-5.8-6.2-11.1-10.6-15.4c-0.7-0.7-1.6-1.4-2.6-1.1
	c-0.3,0.1-0.6,0.4-0.9,0.6c-0.2,0.1-0.3,0.3-0.5,0.4c-0.5,0.3-1.2,0.4-1.5-0.1c-0.2-0.4,0-0.9,0.3-1.3c1-1.2,2.8-1.4,4.2-0.8
	c1.4,0.6,2.5,1.7,3.6,2.9c3.8,4.1,7.4,8.8,9.1,14.3c0.7,2.5,1,5.5-0.7,7.4c-0.1,0.2-0.3,0.3-0.5,0.4c-0.6,0.2-1.2-0.5-1.2-1.2
	c0-0.7,0.4-1.3,0.8-1.8c0-0.1,0.1-0.1,0.1-0.2C257.1,164.8,257.5,164.3,257.7,163.8z M232.9,140.8c1.6,2.4,2.9,5,4,7.7
	c0.2,0.4,0.3,0.8,0.1,1.2c-0.2,0.2-0.5,0.3-0.7,0.1c-3.2-4.2-6.2-8.8-8.7-13.5c0.2,0.1,0.6,0,0.5-0.3
	C230.2,136.9,231.6,138.8,232.9,140.8z M244.2,161.4c-0.3-0.4-0.5-1.2-0.1-1.4c1.9,0.9,3.2,2.8,4.4,4.7c1.7,2.7,3.4,5.4,5,8.2
	c0.4,0.7,0.7,1.7,0.1,2.1c-1-0.5-1.7-1.5-2.3-2.5L244.2,161.4z M263.1,186.6c-0.2-0.1-0.3-0.2-0.3-0.4c-0.4-1,0.5-2.3,1.5-2.1
	c0,0.9-0.2,1.9-0.7,2.7c0-0.1-0.2-0.2-0.3-0.2C263.2,186.7,263.1,186.7,263.1,186.6z M265.3,188.9c-0.3,0.4-0.9,0.3-1.2,0
	c-0.3-0.9,0.1-2,0.8-2.5L265.3,188.9z"/>
</svg>
