<?xml version="1.0" encoding="utf-8"?>
<!-- Generator: Adobe Illustrator 22.1.0, SVG Export Plug-In . SVG Version: 6.00 Build 0)  -->
<svg version="1.1" id="图层_1" xmlns="http://www.w3.org/2000/svg" xmlns:xlink="http://www.w3.org/1999/xlink" x="0px" y="0px"
	 viewBox="0 0 28.3 28.3" style="enable-background:new 0 0 28.3 28.3;" xml:space="preserve">
<style type="text/css">
	.st0{fill:url(#SVGID_1_);}
	.st1{fill:#FFFFFF;}
</style>
<linearGradient id="SVGID_1_" gradientUnits="userSpaceOnUse" x1="21.2551" y1="2.1236" x2="7.2528" y2="26.3764">
	<stop  offset="0" style="stop-color:#FFF6A3"/>
	<stop  offset="0.3479" style="stop-color:#FF6AC9"/>
	<stop  offset="0.3786" style="stop-color:#F26DCB"/>
	<stop  offset="1" style="stop-color:#00A8E8"/>
</linearGradient>
<circle class="st0" cx="14.3" cy="14.3" r="14"/>
<path class="st1" d="M13.4,4.3c0,0.2,0.7,4.1,0.7,5.5c0,2.2-1.2,3.9-3,4.5l0.6,10.2c0,0.6-0.4,1.1-1,1.1H7.9c-0.6,0-1.1-0.5-1-1.1
	l0.6-10.2c-1.8-0.6-3-2.3-3-4.5c0-1.5,0.7-5.3,0.7-5.5c0.1-0.9,1.9-0.9,2.1,0v6.1c0.1,0.1,0.6,0.1,0.7,0c0.1-1.1,0.3-6,0.3-6.1
	c0.1-0.9,1.9-0.9,2.1,0c0,0.1,0.3,5,0.3,6.1c0,0.1,0.6,0.1,0.7,0V4.4C11.5,3.4,13.3,3.4,13.4,4.3z M18.5,16.6l-0.6,8
	c-0.1,0.6,0.4,1.1,1,1.1h2.4c0.6,0,1-0.5,1-1V4.7c0-0.6-0.5-1-1-1C17.8,3.7,11.8,11.3,18.5,16.6L18.5,16.6z"/>
</svg>
