<?xml version="1.0" encoding="utf-8"?>
<!-- Generator: Adobe Illustrator 22.1.0, SVG Export Plug-In . SVG Version: 6.00 Build 0)  -->
<svg version="1.1" id="图层_1" focusable="false" xmlns="http://www.w3.org/2000/svg" xmlns:xlink="http://www.w3.org/1999/xlink"
	 x="0px" y="0px" viewBox="0 0 416 512" style="enable-background:new 0 0 416 512;" xml:space="preserve">
<style type="text/css">
	.st0{fill:url(#SVGID_1_);}
</style>
<linearGradient id="SVGID_1_" gradientUnits="userSpaceOnUse" x1="371.571" y1="-15.5118" x2="68.6512" y2="509.1607">
	<stop  offset="0" style="stop-color:#FFF6A3"/>
	<stop  offset="0.3479" style="stop-color:#FF6AC9"/>
	<stop  offset="0.3786" style="stop-color:#F26DCB"/>
	<stop  offset="1" style="stop-color:#00A8E8"/>
</linearGradient>
<path class="st0" d="M207.9,15.2c0.8,4.7,16.1,94.5,16.1,128.8c0,52.3-27.8,89.6-68.9,104.6L168,486.7c0.7,13.7-10.2,25.3-24,25.3
	H80c-13.7,0-24.7-11.5-24-25.3l12.9-238.1C27.7,233.6,0,196.2,0,144C0,109.6,15.3,19.9,16.1,15.2C19.3-5.1,61.4-5.4,64,16.3v141.2
	c1.3,3.4,15.1,3.2,16,0c1.4-25.3,7.9-139.2,8-141.8c3.3-20.8,44.7-20.8,47.9,0c0.2,2.7,6.6,116.5,8,141.8c0.9,3.2,14.8,3.4,16,0
	V16.3C162.5-5.3,204.7-5.1,207.9,15.2z M327.1,300.9l-15,185.1c-1.2,14,9.9,26,23.9,26h56c13.3,0,24-10.7,24-24V24
	c0-13.2-10.7-24-24-24C309.5,0,170.6,178.5,327.1,300.9L327.1,300.9z"/>
</svg>
